<mxfile host="app.diagrams.net" modified="2023-11-14T17:16:24.198Z" agent="Mozilla/5.0 (Windows NT 10.0; Win64; x64) AppleWebKit/537.36 (KHTML, like Gecko) Chrome/116.0.5845.837 YaBrowser/23.9.4.837 Yowser/2.5 Safari/537.36" etag="6hSOn6_Scn1Eepgvab2D" version="22.1.0" type="device">
  <diagram name="Page-1" id="e7e014a7-5840-1c2e-5031-d8a46d1fe8dd">
    <mxGraphModel dx="1002" dy="1393" grid="1" gridSize="10" guides="1" tooltips="1" connect="1" arrows="1" fold="1" page="1" pageScale="1" pageWidth="1169" pageHeight="826" background="none" math="0" shadow="0">
      <root>
        <mxCell id="0" />
        <mxCell id="1" parent="0" />
        <mxCell id="2" value="Пользователь" style="swimlane;whiteSpace=wrap" parent="1" vertex="1">
          <mxGeometry x="164.5" y="128" width="280" height="570" as="geometry" />
        </mxCell>
        <mxCell id="5" value="" style="ellipse;shape=startState;fillColor=#000000;strokeColor=#ff0000;" parent="2" vertex="1">
          <mxGeometry x="100" y="40" width="30" height="30" as="geometry" />
        </mxCell>
        <mxCell id="6" value="" style="edgeStyle=elbowEdgeStyle;elbow=horizontal;verticalAlign=bottom;endArrow=open;endSize=8;strokeColor=#FF0000;endFill=1;rounded=0" parent="2" source="5" edge="1">
          <mxGeometry x="100" y="40" as="geometry">
            <mxPoint x="115.23684210526312" y="110" as="targetPoint" />
          </mxGeometry>
        </mxCell>
        <mxCell id="12" value="" style="edgeStyle=elbowEdgeStyle;elbow=horizontal;strokeColor=#FF0000;endArrow=open;endFill=1;rounded=0;exitX=0;exitY=0.5;exitDx=0;exitDy=0;" parent="2" source="ZeloWy5HW8AqaQuyaec--48" edge="1">
          <mxGeometry width="100" height="100" relative="1" as="geometry">
            <mxPoint x="160" y="290" as="sourcePoint" />
            <mxPoint x="60" y="135" as="targetPoint" />
            <Array as="points">
              <mxPoint x="30" y="250" />
            </Array>
          </mxGeometry>
        </mxCell>
        <mxCell id="ZeloWy5HW8AqaQuyaec--41" value="Запрос информации о концертах" style="rounded=1;whiteSpace=wrap;html=1;" parent="2" vertex="1">
          <mxGeometry x="65.5" y="112" width="120" height="60" as="geometry" />
        </mxCell>
        <mxCell id="ZeloWy5HW8AqaQuyaec--47" value="ошибка" style="html=1;verticalAlign=bottom;endArrow=block;curved=0;rounded=0;fillColor=#f8cecc;strokeColor=#b85450;exitX=0;exitY=0.5;exitDx=0;exitDy=0;" parent="2" source="ZeloWy5HW8AqaQuyaec--44" edge="1">
          <mxGeometry width="80" relative="1" as="geometry">
            <mxPoint x="355.5" y="192" as="sourcePoint" />
            <mxPoint x="115.5" y="212" as="targetPoint" />
            <Array as="points">
              <mxPoint x="115.5" y="187" />
            </Array>
          </mxGeometry>
        </mxCell>
        <mxCell id="ZeloWy5HW8AqaQuyaec--48" value="" style="rhombus;whiteSpace=wrap;html=1;" parent="2" vertex="1">
          <mxGeometry x="97.75" y="212" width="34.5" height="35" as="geometry" />
        </mxCell>
        <mxCell id="ZeloWy5HW8AqaQuyaec--49" value="повтор" style="text;html=1;align=center;verticalAlign=middle;resizable=0;points=[];autosize=1;strokeColor=none;fillColor=none;" parent="2" vertex="1">
          <mxGeometry x="37.75" y="202" width="60" height="30" as="geometry" />
        </mxCell>
        <mxCell id="38" value="" style="ellipse;shape=endState;fillColor=#000000;strokeColor=#ff0000" parent="2" vertex="1">
          <mxGeometry x="97.75" y="415" width="30" height="30" as="geometry" />
        </mxCell>
        <mxCell id="39" value="" style="endArrow=open;strokeColor=#FF0000;endFill=1;rounded=0" parent="2" target="38" edge="1">
          <mxGeometry relative="1" as="geometry">
            <mxPoint x="114.2864416925238" y="375" as="sourcePoint" />
          </mxGeometry>
        </mxCell>
        <mxCell id="ZeloWy5HW8AqaQuyaec--50" value="Получение данных" style="rounded=1;whiteSpace=wrap;html=1;" parent="2" vertex="1">
          <mxGeometry x="55.5" y="317" width="120" height="60" as="geometry" />
        </mxCell>
        <mxCell id="ZeloWy5HW8AqaQuyaec--61" value="прерывание" style="text;html=1;strokeColor=none;fillColor=none;align=center;verticalAlign=middle;whiteSpace=wrap;rounded=0;" parent="2" vertex="1">
          <mxGeometry x="40" y="270" width="60" height="30" as="geometry" />
        </mxCell>
        <mxCell id="3" value="Бот" style="swimlane;whiteSpace=wrap" parent="1" vertex="1">
          <mxGeometry x="444.5" y="130" width="280" height="568" as="geometry" />
        </mxCell>
        <mxCell id="23" value="Доступен" style="edgeStyle=elbowEdgeStyle;elbow=horizontal;align=left;verticalAlign=top;endArrow=open;endSize=8;strokeColor=#FF0000;endFill=1;rounded=0;exitX=0.5;exitY=1;exitDx=0;exitDy=0;entryX=0.5;entryY=0;entryDx=0;entryDy=0;" parent="3" source="ZeloWy5HW8AqaQuyaec--44" target="ZeloWy5HW8AqaQuyaec--45" edge="1">
          <mxGeometry x="-1" relative="1" as="geometry">
            <mxPoint x="190" y="305" as="targetPoint" />
            <mxPoint x="189.97368421052647" y="264.98684210526324" as="sourcePoint" />
            <Array as="points" />
          </mxGeometry>
        </mxCell>
        <mxCell id="ZeloWy5HW8AqaQuyaec--44" value="" style="rhombus;whiteSpace=wrap;html=1;" parent="3" vertex="1">
          <mxGeometry x="95.5" y="170" width="34.5" height="30" as="geometry" />
        </mxCell>
        <mxCell id="ZeloWy5HW8AqaQuyaec--45" value="Запрос к базе данных" style="rounded=1;whiteSpace=wrap;html=1;" parent="3" vertex="1">
          <mxGeometry x="52.5" y="223" width="120" height="60" as="geometry" />
        </mxCell>
        <mxCell id="ZeloWy5HW8AqaQuyaec--53" value="" style="endArrow=classic;html=1;rounded=0;entryX=-0.019;entryY=0.637;entryDx=0;entryDy=0;entryPerimeter=0;fillColor=#f8cecc;strokeColor=#b85450;" parent="3" target="ZeloWy5HW8AqaQuyaec--51" edge="1">
          <mxGeometry width="50" height="50" relative="1" as="geometry">
            <mxPoint x="175.5" y="260" as="sourcePoint" />
            <mxPoint x="225.5" y="210" as="targetPoint" />
          </mxGeometry>
        </mxCell>
        <mxCell id="ZeloWy5HW8AqaQuyaec--54" value="Вывод данных" style="rounded=1;whiteSpace=wrap;html=1;" parent="3" vertex="1">
          <mxGeometry x="52.5" y="320" width="120" height="60" as="geometry" />
        </mxCell>
        <mxCell id="4" value="База данных" style="swimlane;whiteSpace=wrap" parent="1" vertex="1">
          <mxGeometry x="724.5" y="128" width="280" height="570" as="geometry" />
        </mxCell>
        <mxCell id="37" value="" style="edgeStyle=none;strokeColor=#FF0000;endArrow=open;endFill=1;rounded=0;exitX=1;exitY=0.5;exitDx=0;exitDy=0;" parent="4" source="ZeloWy5HW8AqaQuyaec--41" edge="1">
          <mxGeometry width="100" height="100" relative="1" as="geometry">
            <mxPoint x="-30" y="429.5" as="sourcePoint" />
            <mxPoint x="-164.5" y="172" as="targetPoint" />
            <Array as="points">
              <mxPoint x="-164.5" y="142" />
            </Array>
          </mxGeometry>
        </mxCell>
        <mxCell id="ZeloWy5HW8AqaQuyaec--51" value="Выборка данных" style="rounded=1;whiteSpace=wrap;html=1;" parent="4" vertex="1">
          <mxGeometry x="65.5" y="225" width="120" height="60" as="geometry" />
        </mxCell>
        <mxCell id="20" value="" style="endArrow=open;strokeColor=#FF0000;endFill=1;rounded=0;exitX=0.5;exitY=1;exitDx=0;exitDy=0;" parent="1" source="ZeloWy5HW8AqaQuyaec--48" edge="1">
          <mxGeometry relative="1" as="geometry">
            <mxPoint x="280" y="530" as="targetPoint" />
            <Array as="points">
              <mxPoint x="280" y="430" />
              <mxPoint x="200" y="430" />
              <mxPoint x="200" y="530" />
            </Array>
          </mxGeometry>
        </mxCell>
        <mxCell id="ZeloWy5HW8AqaQuyaec--52" value="" style="endArrow=classic;html=1;rounded=0;exitX=0;exitY=0.75;exitDx=0;exitDy=0;fillColor=#f8cecc;strokeColor=#b85450;entryX=1.007;entryY=0.367;entryDx=0;entryDy=0;entryPerimeter=0;" parent="1" source="ZeloWy5HW8AqaQuyaec--51" target="ZeloWy5HW8AqaQuyaec--54" edge="1">
          <mxGeometry width="50" height="50" relative="1" as="geometry">
            <mxPoint x="490" y="410" as="sourcePoint" />
            <mxPoint x="630" y="470" as="targetPoint" />
            <Array as="points" />
          </mxGeometry>
        </mxCell>
        <mxCell id="ZeloWy5HW8AqaQuyaec--56" value="" style="endArrow=classic;html=1;rounded=0;exitX=0;exitY=0.5;exitDx=0;exitDy=0;fillColor=#f8cecc;strokeColor=#b85450;" parent="1" source="ZeloWy5HW8AqaQuyaec--54" edge="1">
          <mxGeometry width="50" height="50" relative="1" as="geometry">
            <mxPoint x="500" y="410" as="sourcePoint" />
            <mxPoint x="340" y="480" as="targetPoint" />
          </mxGeometry>
        </mxCell>
        <mxCell id="ZeloWy5HW8AqaQuyaec--65" value="&lt;b&gt;&lt;font style=&quot;font-size: 18px;&quot;&gt;Диаграмма деятельности&lt;br&gt;(Филармония. Пользователь телеграмм-бота филармонии хочет узнать информацию о концертах)&lt;/font&gt;&lt;/b&gt;" style="text;html=1;strokeColor=none;fillColor=none;align=center;verticalAlign=middle;whiteSpace=wrap;rounded=0;" parent="1" vertex="1">
          <mxGeometry x="190" y="-10" width="770" height="210" as="geometry" />
        </mxCell>
      </root>
    </mxGraphModel>
  </diagram>
</mxfile>
